<?xml version="1.0" encoding="UTF-8"?>
<svg xmlns="http://www.w3.org/2000/svg" viewBox="0 0 64 64" role="img" aria-labelledby="title desc">
  <title id="title">TiO2 Malaysia favicon-safe symbol candidate</title>
  <desc id="desc">Simplified vector particle sphere and dual orbit for small-size brand recognition.</desc>
  <g transform="translate(4 4) scale(0.875)">
    <circle cx="29" cy="32" r="16" fill="#F5F8FB" stroke="#062B5B" stroke-width="2"/>
    <path d="M21 29l4-3 4 2 2 4-2 3 2 4-3 3-4-2-1-4-3-3zM32 35l5-4 5-1 4-3 5 2-2 3 3 2-4 2-4 1-4 3-4-2-3 2-3-2z" fill="#062B5B"/>
    <path d="M7 39C16 51 38 54 53 43C60 38 62 31 59 25" fill="none" stroke="#062B5B" stroke-width="7" stroke-linecap="round"/>
    <path d="M14 21C26 10 47 13 56 23C61 29 60 36 56 41" fill="none" stroke="#00A99D" stroke-width="5" stroke-linecap="round"/>
    <circle cx="16" cy="13" r="4" fill="#FFFFFF" stroke="#062B5B" stroke-width="2"/>
    <circle cx="25" cy="8" r="3" fill="#FFFFFF" stroke="#062B5B" stroke-width="2"/>
    <circle cx="33" cy="12" r="3.5" fill="#FFFFFF" stroke="#062B5B" stroke-width="2"/>
  </g>
</svg>
